<?xml version="1.0" encoding="utf-8"?>
<!-- Generator: Adobe Illustrator 27.4.0, SVG Export Plug-In . SVG Version: 6.00 Build 0)  -->
<svg version="1.1" id="Capa_2_00000168800491941733660970000000718335103684232595_"
	 xmlns="http://www.w3.org/2000/svg" xmlns:xlink="http://www.w3.org/1999/xlink" x="0px" y="0px" viewBox="0 0 1046.8 216.8"
	 style="enable-background:new 0 0 1046.8 216.8;" xml:space="preserve">
<style type="text/css">
	.st0{fill:#0691D7;}
	.st1{fill:#0693DA;}
	.st2{fill:#C5DDF9;}
	.st3{fill:#90CAF2;}
	.st4{fill:#2FA5E3;}
	.st5{fill:#ABD3F6;}
</style>
<g>
	<path class="st0" d="M306.3,73.3H337c22.8,0,38.3,14.1,38.3,35.1s-15.6,35.1-38.3,35.1h-30.7V73.3z M336.4,132.5
		c15.7,0,25.8-9.5,25.8-24.1S352,84.3,336.4,84.3h-17.1v48.2L336.4,132.5L336.4,132.5z"/>
	<path class="st0" d="M451.9,132.6v10.9h-52.7V73.3h51.3v10.9h-38.2v18.3h33.9v10.7h-33.9v19.4L451.9,132.6L451.9,132.6z"/>
	<path class="st0" d="M539.8,73.3l-30.6,70.3h-12.8l-30.7-70.3h14.2l23.4,54.2l23.6-54.2L539.8,73.3L539.8,73.3z"/>
	<path class="st0" d="M600.5,143.5l-19.1-26.7l-18.9,26.7h-14.9l26.1-35.8l-24.7-34.4h14.8l18,25l17.8-25h14.2l-24.6,33.9l26.4,36.3
		L600.5,143.5L600.5,143.5z"/>
	<path class="st0" d="M692.3,98.3c0,15.5-11.4,25-29.9,25h-15.9v20.3h-13V73.3h28.9C680.9,73.3,692.3,82.7,692.3,98.3z M679.2,98.3
		c0-8.8-5.9-14-17.4-14h-15.3v27.9h15.3C673.2,112.2,679.2,107.1,679.2,98.3L679.2,98.3z"/>
	<path class="st0" d="M768.1,132.6v10.9h-52.7V73.3h51.3v10.9h-38.2v18.3h33.9v10.7h-33.9v19.4L768.1,132.6L768.1,132.6z"/>
	<path class="st0" d="M838.7,143.5L824.3,123c-0.9,0.1-1.8,0.1-2.7,0.1h-15.9v20.5h-13V73.3h28.9c18.5,0,29.9,9.4,29.9,25
		c0,10.6-5.4,18.5-15,22.2l16.2,23.1H838.7L838.7,143.5z M821,84.3h-15.3v28H821c11.4,0,17.4-5.2,17.4-14.1S832.4,84.3,821,84.3
		L821,84.3z"/>
	<path class="st0" d="M889.4,84.3h-23.3v-11h59.6v11h-23.3v59.2h-13V84.3L889.4,84.3z"/>
	<path class="st0" d="M938.9,136.1l4.5-10.1c5.6,4.5,14.6,7.7,23.2,7.7c10.9,0,15.6-3.9,15.6-9.1c0-15.2-41.8-5.2-41.8-31.3
		c0-11.3,9-21,28.3-21c8.4,0,17.3,2.2,23.4,6.2L988,88.6c-6.3-3.7-13.2-5.5-19.4-5.5c-10.8,0-15.3,4.2-15.3,9.5
		c0,15,41.7,5.2,41.7,31c0,11.2-9.1,20.9-28.4,20.9C955.7,144.6,944.8,141.1,938.9,136.1L938.9,136.1z"/>
</g>
<g>
	<polygon class="st1" points="41.7,144.6 0,216.8 83.5,216.8 	"/>
	<polygon class="st2" points="125.2,0 83.5,72.3 166.9,72.3 	"/>
	<polygon class="st3" points="125.2,144.6 83.5,216.8 166.9,216.8 	"/>
	<polygon class="st4" points="83.5,216.8 41.7,144.6 125.2,144.6 	"/>
	<polygon class="st5" points="166.9,216.8 125.2,144.6 208.6,144.6 	"/>
	<polygon class="st1" points="208.6,144.6 166.9,216.8 250.4,216.8 	"/>
	<polygon class="st3" points="125.2,144.6 166.9,72.3 83.5,72.3 	"/>
	<polygon class="st4" points="166.9,72.3 208.6,144.6 125.2,144.6 	"/>
	<polygon class="st5" points="83.5,72.3 125.2,144.6 41.7,144.6 	"/>
</g>
</svg>
